<svg width="138" height="32" viewBox="0 0 138 32" fill="none" xmlns="http://www.w3.org/2000/svg">
<g clip-path="url(#clip0_2_24)">
<path d="M0.0657951 0.0242581H12.1201C12.1201 0.0242581 22.0864 -0.808112 22.0864 7.47791C22.0864 15.7639 13.5053 15.1405 11.8708 15.1405L0 15.1234V11.4582H12.3175C12.3175 11.4582 17.7266 11.7048 17.7266 7.47791C17.7266 3.39484 14.0698 3.68258 12.1859 3.68258H0.0623322L0.0657951 0.0242581Z" fill="white"/>
<path d="M20.4623 17.8737C22.2976 18.9595 23.9459 20.9189 23.9459 24.1216C23.9459 32.4076 15.3614 31.9383 13.7235 31.9383L0 31.9486V28.2766H14.0836C14.0836 28.2766 19.5515 28.3485 19.5896 24.1216C19.6139 21.2169 17.7474 19.0075 15.964 17.8737H20.4623Z" fill="white"/>
<path d="M34.6913 17.8737H39.851V25.1184C39.851 27.4956 41.2951 28.2766 42.7218 28.2766H56.8262L56.8469 32H39.8233C38.0538 32 34.6844 30.8662 34.6844 26.1392L34.6913 17.8737Z" fill="white"/>
<path d="M56.8643 11.4785H42.2716C40.8414 11.4785 39.8476 11.3415 39.8476 9.72126C39.8476 9.46778 39.8476 5.77863 39.8718 5.49775C39.8718 3.78505 40.7583 3.68914 42.1885 3.68914H56.8469V0.0239757H40.225C40.225 0.0239757 34.6913 -0.342541 34.6913 5.48062V9.54999C34.6913 14.7806 38.639 15.1231 40.4086 15.1231H56.8296L56.8643 11.4785Z" fill="white"/>
<path d="M93.7718 0.0308228C92.9961 0.876894 85.7864 9.40269 84.8722 10.307C83.3485 11.7936 80.6197 11.4751 78.4104 11.4751C76.2011 11.4751 75.7821 9.79319 75.7821 8.64911C75.7821 7.50503 75.7821 1.07214 75.7821 0.0410989H70.6431C70.6431 1.13037 70.6604 10.0604 70.6604 11.4751C70.6604 12.5986 71.1937 15.1471 75.7648 15.1471H84.5744C85.7067 15.1471 87.4139 14.462 89.3705 12.1738C89.9488 11.4888 98.3221 1.53457 99.6795 0.0548005L93.7718 0.0308228Z" fill="white"/>
<path d="M88.7195 20.1653C87.6425 19.0143 86.6591 17.8737 83.2689 17.8737H75.7613C72.0041 17.8737 70.6674 20.5695 70.6674 21.9842V31.952H75.7821C75.7821 30.9244 75.7821 24.5121 75.7821 23.368C75.7821 22.2239 76.1284 21.58 78.3654 21.58C80.6024 21.58 80.2319 21.58 80.4812 21.58C82.5971 21.58 83.7814 21.6553 84.8722 22.7309C85.7829 23.6283 93.2732 31.0477 94.1355 31.9418H100.022C98.5887 30.4072 89.3428 20.8161 88.7195 20.1653Z" fill="white"/>
<path d="M131.739 0.0411072C130.963 0.887179 123.754 9.41298 122.839 10.3173C121.316 11.8039 118.587 11.4853 116.378 11.4853C114.168 11.4853 113.749 9.80347 113.749 8.65939C113.749 7.51531 113.749 1.08243 113.749 0.0513834H108.603C108.603 1.14066 108.621 10.0707 108.621 11.4853C108.621 12.6089 109.154 15.1574 113.725 15.1574H122.535C123.667 15.1574 125.374 14.4723 127.331 12.1841C127.909 11.499 136.282 1.54485 137.64 0.0650849L131.739 0.0411072Z" fill="white"/>
<path d="M126.687 20.1756C125.61 19.0246 124.626 17.884 121.236 17.884H113.725C109.968 17.884 108.631 20.5797 108.631 21.9944V31.9623H113.746C113.746 30.9347 113.746 24.5224 113.746 23.3783C113.746 22.2342 114.096 21.58 116.353 21.58C118.611 21.58 118.22 21.58 118.469 21.58C120.585 21.58 121.769 21.6553 122.86 22.7309C123.761 23.6352 131.244 31.0512 132.113 31.9486H138C136.556 30.4209 127.296 20.8264 126.687 20.1756Z" fill="white"/>
</g>
<defs>
<clipPath id="clip0_2_24">
<rect width="138" height="32" fill="white"/>
</clipPath>
</defs>
</svg>
